
<svg width="100" height="100" viewBox="0 0 100 100" fill="none" xmlns="http://www.w3.org/2000/svg">
  <path d="M50 90C72.0914 90 90 72.0914 90 50C90 27.9086 72.0914 10 50 10C27.9086 10 10 27.9086 10 50C10 72.0914 27.9086 90 50 90Z" fill="#F5F3FF" fill-opacity="0.6"/>
  <path d="M65 35C65 43.2843 58.2843 50 50 50C41.7157 50 35 43.2843 35 35C35 26.7157 41.7157 20 50 20C58.2843 20 65 26.7157 65 35Z" fill="#DDD6FE" fill-opacity="0.8"/>
  <path d="M50 90C72.0914 90 90 72.0914 90 50C90 27.9086 72.0914 10 50 10C27.9086 10 10 27.9086 10 50C10 72.0914 27.9086 90 50 90Z" stroke="#8B5CF6" stroke-width="2" stroke-linecap="round" stroke-dasharray="4 6"/>
</svg>
