
<svg width="300" height="300" viewBox="0 0 300 300" fill="none" xmlns="http://www.w3.org/2000/svg">
  <path d="M150 20C150 20 230 75 230 150C230 225 150 280 150 280" stroke="#38BDF8" stroke-width="8" stroke-linecap="round"/>
  <path d="M150 20C150 20 70 75 70 150C70 225 150 280 150 280" stroke="#38BDF8" stroke-width="8" stroke-linecap="round"/>
  <path d="M150 40L230 80" stroke="#38BDF8" stroke-width="6" stroke-linecap="round"/>
  <path d="M150 70L230 110" stroke="#38BDF8" stroke-width="6" stroke-linecap="round"/>
  <path d="M150 100L230 140" stroke="#38BDF8" stroke-width="6" stroke-linecap="round"/>
  <path d="M150 130L230 170" stroke="#38BDF8" stroke-width="6" stroke-linecap="round"/>
  <path d="M150 160L230 200" stroke="#38BDF8" stroke-width="6" stroke-linecap="round"/>
  <path d="M150 190L230 230" stroke="#38BDF8" stroke-width="6" stroke-linecap="round"/>
  <path d="M150 220L230 260" stroke="#38BDF8" stroke-width="6" stroke-linecap="round"/>
  <path d="M150 40L70 80" stroke="#0EA5E9" stroke-width="6" stroke-linecap="round"/>
  <path d="M150 70L70 110" stroke="#0EA5E9" stroke-width="6" stroke-linecap="round"/>
  <path d="M150 100L70 140" stroke="#0EA5E9" stroke-width="6" stroke-linecap="round"/>
  <path d="M150 130L70 170" stroke="#0EA5E9" stroke-width="6" stroke-linecap="round"/>
  <path d="M150 160L70 200" stroke="#0EA5E9" stroke-width="6" stroke-linecap="round"/>
  <path d="M150 190L70 230" stroke="#0EA5E9" stroke-width="6" stroke-linecap="round"/>
  <path d="M150 220L70 260" stroke="#0EA5E9" stroke-width="6" stroke-linecap="round"/>
</svg>
