
<svg width="180" height="36" viewBox="0 0 180 36" fill="none" xmlns="http://www.w3.org/2000/svg">
  <path d="M36.4 8.8H29.76V27.2H24.56V8.8H17.92V4.4H36.4V8.8Z" fill="#0EA5E9"/>
  <path d="M51.5367 16.64H44.4167V22.8H52.8167V27.2H39.2167V4.4H52.7367V8.8H44.4167V12.36H51.5367V16.64Z" fill="#0EA5E9"/>
  <path d="M63.3743 20.28H61.0543V27.2H55.8543V4.4H63.6943C65.9743 4.4 67.7743 4.97333 69.0943 6.12C70.4143 7.26667 71.0743 8.82667 71.0743 10.8C71.0743 12.2933 70.7343 13.52 70.0543 14.48C69.3876 15.44 68.4276 16.16 67.1743 16.64L71.7143 27H66.1343L63.3743 20.28ZM61.0543 15.96H63.6943C64.6276 15.96 65.3476 15.7067 65.8543 15.2C66.3743 14.68 66.6343 13.96 66.6343 13.04C66.6343 12.1333 66.3743 11.4267 65.8543 10.92C65.3476 10.4 64.6276 10.14 63.6943 10.14H61.0543V15.96Z" fill="#0EA5E9"/>
  <path d="M91.8909 27.2H86.6909L78.2909 12.04V27.2H73.0909V4.4H78.2909L86.6909 19.6V4.4H91.8909V27.2Z" fill="#0EA5E9"/>
  <path d="M99.0898 4.4L103.81 18.76L108.57 4.4H114.69L106.97 27.2H100.69L92.9698 4.4H99.0898Z" fill="#14B8A6"/>
  <path d="M118.42 27.2V4.4H123.62V27.2H118.42Z" fill="#14B8A6"/>
  <path d="M138.788 23.56H132.068L130.948 27.2H125.548L133.268 4.4H137.668L145.388 27.2H139.908L138.788 23.56ZM137.268 19.32L135.428 13.68L133.588 19.32H137.268Z" fill="#14B8A6"/>
  <path d="M158.886 27.2H153.686L145.286 12.04V27.2H140.086V4.4H145.286L153.686 19.6V4.4H158.886V27.2Z" fill="#14B8A6"/>
  <path d="M170.444 27.2H165.244V8.8H158.604V4.4H177.084V8.8H170.444V27.2Z" fill="#14B8A6"/>
  <mask id="mask0_1_124" style="mask-type:alpha" maskUnits="userSpaceOnUse" x="0" y="0" width="24" height="36">
    <rect width="24" height="36" fill="#D9D9D9"/>
  </mask>
  <g mask="url(#mask0_1_124)">
    <path d="M21.4286 18C21.4286 20.4003 20.4951 22.7226 18.8306 24.4372C17.166 26.1517 14.916 27.1143 12.5714 27.1143C10.2269 27.1143 7.97685 26.1517 6.31228 24.4372C4.64772 22.7226 3.71429 20.4003 3.71429 18C3.71429 17.2286 3.82286 16.4571 4.02857 15.7286L15.6 4.5C19.1143 7.88572 21.4286 12.6 21.4286 18Z" fill="#14B8A6"/>
    <path d="M15.6 31.5C19.3019 31.5 22.8528 29.9893 25.4818 27.2818C28.1108 24.5744 29.5714 20.9131 29.5714 17.1C29.5714 13.2869 28.1108 9.62557 25.4818 6.91815C22.8528 4.21072 19.3019 2.7 15.6 2.7C11.8981 2.7 8.34723 4.21072 5.71825 6.91815C3.08926 9.62557 1.62857 13.2869 1.62857 17.1C1.62857 20.9131 3.08926 24.5744 5.71825 27.2818C8.34723 29.9893 11.8981 31.5 15.6 31.5ZM15.6 33.3C11.4626 33.3 7.49445 31.6511 4.5939 28.6939C1.6934 25.7366 0.0857086 21.6843 0.0857086 17.46C0.0857086 13.2356 1.6934 9.18329 4.5939 6.22602C7.49445 3.26876 11.4626 1.62 15.6 1.62C19.7374 1.62 23.7056 3.26876 26.6061 6.22602C29.5066 9.18329 31.1143 13.2356 31.1143 17.46C31.1143 21.6843 29.5066 25.7366 26.6061 28.6939C23.7056 31.6511 19.7374 33.3 15.6 33.3Z" fill="#0EA5E9"/>
  </g>
</svg>
