
<svg width="48" height="48" viewBox="0 0 48 48" fill="none" xmlns="http://www.w3.org/2000/svg">
  <path d="M12 32C12 27.582 15.582 24 20 24H28C32.418 24 36 27.582 36 32V40C36 42.209 34.209 44 32 44H16C13.791 44 12 42.209 12 40V32Z" fill="#E0F2FE"/>
  <path d="M38 18C38 22.418 34.418 26 30 26C25.582 26 22 22.418 22 18C22 13.582 25.582 10 30 10C34.418 10 38 13.582 38 18Z" fill="#BAE6FD"/>
  <path d="M18 6C18 6 14 6 14 10V24M30 26C34.418 26 38 22.418 38 18C38 13.582 34.418 10 30 10C25.582 10 22 13.582 22 18C22 22.418 25.582 26 30 26ZM30 26V32C30 36.418 26.418 40 22 40H18C13.582 40 10 36.418 10 32V24M14 24C17.314 24 20 21.314 20 18M14 24C10.686 24 8 21.314 8 18C8 14.686 10.686 12 14 12C17.314 12 20 14.686 20 18M20 18V10" stroke="#0EA5E9" stroke-width="3" stroke-linecap="round" stroke-linejoin="round"/>
</svg>
